{
	"asset":{
		"generator":"Khronos glTF Blender I/O v4.0.43",
		"version":"2.0"
	},
	"scene":0,
	"scenes":[
		{
			"name":"Scene",
			"nodes":[
				5
			]
		}
	],
	"nodes":[
		{
			"mesh":0,
			"name":"COMPOUND003",
			"scale":[
				6.655411720275879,
				16.182100296020508,
				8.300559997558594
			],
			"translation":[
				0,
				-0.9458369016647339,
				0
			]
		},
		{
			"mesh":1,
			"name":"COMPOUND027",
			"scale":[
				6.655411720275879,
				16.182100296020508,
				8.300559997558594
			],
			"translation":[
				0,
				-0.9458369016647339,
				0
			]
		},
		{
			"mesh":2,
			"name":"SOLID.001",
			"scale":[
				6.655411720275879,
				16.182100296020508,
				8.300559997558594
			],
			"translation":[
				0,
				-0.9458369016647339,
				0
			]
		},
		{
			"mesh":3,
			"name":"SOLID.002",
			"scale":[
				14.4520902633667,
				35.13909149169922,
				18.024492263793945
			],
			"translation":[
				0,
				-1.669782280921936,
				0
			]
		},
		{
			"mesh":4,
			"name":"SOLID.003",
			"rotation":[
				0,
				0,
				1,
				1.8309375249389494e-15
			],
			"scale":[
				14.452088356018066,
				35.13909149169922,
				18.024490356445312
			],
			"translation":[
				0,
				1.014059066772461,
				0
			]
		},
		{
			"children":[
				0,
				1,
				2,
				3,
				4
			],
			"name":"Empty",
			"rotation":[
				0,
				0.9999985098838806,
				0,
				0.0017768893158063293
			],
			"scale":[
				0.3628959357738495,
				0.14925266802310944,
				0.29097095131874084
			],
			"translation":[
				0.015283036045730114,
				0.09639288485050201,
				0
			]
		}
	],
	"materials":[
		{
			"doubleSided":true,
			"name":"mat_0",
			"pbrMetallicRoughness":{
				"metallicFactor":0,
				"roughnessFactor":0.26771652698516846
			}
		},
		{
			"doubleSided":true,
			"name":"Material.002",
			"pbrMetallicRoughness":{
				"baseColorFactor":[
					0.36264798045158386,
					0.36264798045158386,
					0.36264798045158386,
					1
				],
				"roughnessFactor":0.36281299591064453
			}
		}
	],
	"meshes":[
		{
			"name":"COMPOUND003",
			"primitives":[
				{
					"attributes":{
						"POSITION":0,
						"NORMAL":1
					},
					"indices":2,
					"material":0
				}
			]
		},
		{
			"name":"COMPOUND027",
			"primitives":[
				{
					"attributes":{
						"POSITION":3,
						"NORMAL":4
					},
					"indices":5,
					"material":0
				}
			]
		},
		{
			"name":"SOLID.001",
			"primitives":[
				{
					"attributes":{
						"POSITION":6,
						"NORMAL":7
					},
					"indices":8,
					"material":1
				}
			]
		},
		{
			"name":"SOLID.002",
			"primitives":[
				{
					"attributes":{
						"POSITION":9,
						"NORMAL":10
					},
					"indices":11,
					"material":1
				}
			]
		},
		{
			"name":"SOLID.003",
			"primitives":[
				{
					"attributes":{
						"POSITION":12,
						"NORMAL":13
					},
					"indices":14,
					"material":1
				}
			]
		}
	],
	"accessors":[
		{
			"bufferView":0,
			"componentType":5126,
			"count":176,
			"max":[
				-0.10249999910593033,
				0.009499999694526196,
				0.04149999842047691
			],
			"min":[
				-0.1054999977350235,
				0.0035000001080334187,
				0.03849999979138374
			],
			"type":"VEC3"
		},
		{
			"bufferView":1,
			"componentType":5126,
			"count":176,
			"type":"VEC3"
		},
		{
			"bufferView":2,
			"componentType":5123,
			"count":516,
			"type":"SCALAR"
		},
		{
			"bufferView":3,
			"componentType":5126,
			"count":176,
			"max":[
				-0.11699999868869781,
				0.013000000268220901,
				0.050999999046325684
			],
			"min":[
				-0.12099999934434891,
				0.004999999888241291,
				0.04699999839067459
			],
			"type":"VEC3"
		},
		{
			"bufferView":4,
			"componentType":5126,
			"count":176,
			"type":"VEC3"
		},
		{
			"bufferView":5,
			"componentType":5123,
			"count":516,
			"type":"SCALAR"
		},
		{
			"bufferView":6,
			"componentType":5126,
			"count":518304,
			"max":[
				0.13719187676906586,
				0.10999999940395355,
				0.1098644807934761
			],
			"min":[
				-0.13718940317630768,
				-0.000999998184852302,
				-0.10907574743032455
			],
			"type":"VEC3"
		},
		{
			"bufferView":7,
			"componentType":5126,
			"count":518304,
			"type":"VEC3"
		},
		{
			"bufferView":8,
			"componentType":5125,
			"count":2743737,
			"type":"SCALAR"
		},
		{
			"bufferView":9,
			"componentType":5126,
			"count":419414,
			"max":[
				0.08500000089406967,
				0.05572119355201721,
				0.02850000001490116
			],
			"min":[
				-0.08500000089406967,
				0.013216229155659676,
				-0.02850000001490116
			],
			"type":"VEC3"
		},
		{
			"bufferView":10,
			"componentType":5126,
			"count":419414,
			"type":"VEC3"
		},
		{
			"bufferView":11,
			"componentType":5125,
			"count":2279352,
			"type":"SCALAR"
		},
		{
			"bufferView":12,
			"componentType":5126,
			"count":352727,
			"max":[
				0.0697999969124794,
				0.0562589168548584,
				0.02850000001490116
			],
			"min":[
				-0.05999999865889549,
				0.014416225254535675,
				-0.02850000001490116
			],
			"type":"VEC3"
		},
		{
			"bufferView":13,
			"componentType":5126,
			"count":352727,
			"type":"VEC3"
		},
		{
			"bufferView":14,
			"componentType":5125,
			"count":1897818,
			"type":"SCALAR"
		}
	],
	"bufferViews":[
		{
			"buffer":0,
			"byteLength":2112,
			"byteOffset":0,
			"target":34962
		},
		{
			"buffer":0,
			"byteLength":2112,
			"byteOffset":2112,
			"target":34962
		},
		{
			"buffer":0,
			"byteLength":1032,
			"byteOffset":4224,
			"target":34963
		},
		{
			"buffer":0,
			"byteLength":2112,
			"byteOffset":5256,
			"target":34962
		},
		{
			"buffer":0,
			"byteLength":2112,
			"byteOffset":7368,
			"target":34962
		},
		{
			"buffer":0,
			"byteLength":1032,
			"byteOffset":9480,
			"target":34963
		},
		{
			"buffer":0,
			"byteLength":6219648,
			"byteOffset":10512,
			"target":34962
		},
		{
			"buffer":0,
			"byteLength":6219648,
			"byteOffset":6230160,
			"target":34962
		},
		{
			"buffer":0,
			"byteLength":10974948,
			"byteOffset":12449808,
			"target":34963
		},
		{
			"buffer":0,
			"byteLength":5032968,
			"byteOffset":23424756,
			"target":34962
		},
		{
			"buffer":0,
			"byteLength":5032968,
			"byteOffset":28457724,
			"target":34962
		},
		{
			"buffer":0,
			"byteLength":9117408,
			"byteOffset":33490692,
			"target":34963
		},
		{
			"buffer":0,
			"byteLength":4232724,
			"byteOffset":42608100,
			"target":34962
		},
		{
			"buffer":0,
			"byteLength":4232724,
			"byteOffset":46840824,
			"target":34962
		},
		{
			"buffer":0,
			"byteLength":7591272,
			"byteOffset":51073548,
			"target":34963
		}
	],
	"buffers":[
		{
			"byteLength":58664820,
			"uri":"%D0%94%D0%B0%D0%BD%D0%B8%D0%BB%D0%B0%20%D0%A0%D0%B0%D0%BA%D1%83%D1%80%D1%81%203%20.bin"
		}
	]
}
