<svg width="43" height="39" viewBox="0 0 43 39" fill="none" xmlns="http://www.w3.org/2000/svg">
<path d="M3.0029 0C1.4644 0 0.212402 1.24544 0.212402 2.77587V8.3276H1.14257H42.0698H43V6.47702C43 4.94659 41.748 3.70115 40.2095 3.70115L15.1368 3.70658C14.8773 3.61312 14.3406 2.76309 14.0522 2.30599C13.3388 1.17344 12.5994 0 11.3744 0H3.0029ZM1.14257 10.1782C0.629116 10.1782 0.212402 10.5927 0.212402 11.1035V36.0863C0.212402 37.6195 1.46161 38.8621 3.0029 38.8621H40.2095C41.7508 38.8621 43 37.6195 43 36.0863V11.1035C43 10.5927 42.5833 10.1782 42.0698 10.1782H1.14257Z" fill="#C2C2C2"/>
</svg>
