<svg width="39" height="39" viewBox="0 0 39 39" fill="none" xmlns="http://www.w3.org/2000/svg">
<path fill-rule="evenodd" clip-rule="evenodd" d="M17.5856 0.0745274C12.7091 0.581564 8.38335 2.75832 5.05068 6.38211C0.354373 11.4888 -1.2192 18.8876 0.97474 25.5471C1.96929 28.5661 3.54613 31.093 5.84967 33.3593C8.90126 36.3615 12.6121 38.1617 17.0527 38.7942C17.9556 38.9228 20.9416 38.9207 21.8791 38.7909C26.3369 38.1734 30.1743 36.2688 33.2596 33.1426C36.3295 30.0319 38.1282 26.3464 38.7667 21.8586C38.8939 20.964 38.8939 17.962 38.7667 17.0674C38.4025 14.5072 37.6552 12.196 36.529 10.1467C35.64 8.52897 34.6019 7.14346 33.2596 5.78343C30.2304 2.71406 26.4705 0.817249 22.1451 0.176437C21.2128 0.0382507 18.5142 -0.0219823 17.5856 0.0745274ZM28.5271 11.8138C28.8626 11.9541 29.0238 12.2764 29.0238 12.8074C29.0238 13.2941 25.8111 28.5651 25.6384 28.8993C25.3948 29.3706 24.8746 29.5495 24.3395 29.346C24.1615 29.2782 22.4036 28.0117 19.836 26.1011L19.199 25.6272L17.8171 26.9469C16.8104 27.9084 16.368 28.2814 16.1875 28.3211C16.0512 28.351 15.9225 28.3584 15.9016 28.3374C15.8807 28.3164 15.9368 27.2095 16.0264 25.8775L16.1894 23.4557L16.723 22.9614C17.0165 22.6895 19.0749 20.8228 21.2971 18.8131C23.5193 16.8035 25.3374 15.1094 25.3374 15.0486C25.3374 14.9712 25.2565 14.9401 25.0684 14.9452C24.8508 14.9511 23.7228 15.6308 19.1689 18.5006C16.072 20.4521 13.499 22.0488 13.451 22.0488C13.2412 22.0488 8.44917 20.5075 8.22176 20.3669C7.73654 20.0668 7.83975 19.6116 8.47357 19.2571C8.63866 19.1647 9.84983 18.674 11.165 18.1665C12.4803 17.6591 14.9587 16.7028 16.6727 16.0415C18.3866 15.3802 21.4478 14.198 23.4753 13.4144C27.92 11.6965 27.8783 11.7119 28.0951 11.7085C28.1905 11.7069 28.3849 11.7544 28.5271 11.8138Z" fill="#C2C2C2"/>
</svg>
