<svg width="52" height="39" viewBox="0 0 52 39" fill="none" xmlns="http://www.w3.org/2000/svg">
<path fill-rule="evenodd" clip-rule="evenodd" d="M17.433 0.120119C12.8888 0.563604 8.56194 3.28975 5.65681 7.53974C3.20545 11.1257 0.493249 21.2548 0.154883 28.0874C-0.0586916 32.3992 1.97009 35.4031 6.44379 37.3989C8.44008 38.2895 10.9265 38.8743 12.664 38.8619L13.3121 38.8573L14.5436 37.1678C15.2209 36.2386 15.8426 35.3768 15.9251 35.2528C16.0608 35.0488 15.988 34.9933 15.1627 34.671C13.0572 33.8486 10.9672 32.4455 9.55745 30.9078C9.06439 30.37 8.68321 29.9056 8.71031 29.8758C8.7374 29.846 9.22964 30.0616 9.80434 30.3551C11.9857 31.4689 15.489 32.8226 18.1347 33.5741C23.9405 35.2228 29.1463 35.2836 34.1896 33.7611C36.6381 33.022 39.3028 31.7602 41.6753 30.2168C42.226 29.8585 42.7178 29.5654 42.7684 29.5654C42.9555 29.5654 41.4312 31.1709 40.5623 31.8892C39.5143 32.7552 37.5309 33.8964 36.1536 34.4257C35.6216 34.63 35.1861 34.8397 35.186 34.8915C35.1857 34.9433 35.7266 35.7202 36.3878 36.618C37.0489 37.516 37.6544 38.3399 37.7333 38.4491C37.8522 38.6139 38.0811 38.6348 39.082 38.5723C42.8404 38.3378 47.2388 36.4525 49.2329 34.2213C51.0665 32.1695 51.7247 29.7894 51.3782 26.4631C50.621 19.1928 48.285 11.0492 45.9672 7.60032C43.2889 3.61464 39.5196 1.093 35.0683 0.308985C33.4064 0.0162562 33.0626 0.0410596 32.6802 0.480669L32.3592 0.849615L32.9221 1.01678C34.9096 1.60688 38.6314 3.37527 40.4948 4.61504C41.4641 5.25992 43.1611 6.57087 43.0264 6.57087C42.9875 6.57087 42.54 6.3612 42.0321 6.1049C38.3041 4.224 34.29 2.96318 30.0837 2.35201C28.1484 2.07065 22.8209 2.03151 20.9942 2.28497C16.7953 2.86771 12.8052 4.03165 9.58431 5.61336C7.89389 6.44336 8.00402 6.40176 8.20071 6.13565C8.49896 5.73208 10.7993 4.11368 12.0705 3.41299C12.7533 3.03668 13.919 2.46324 14.6608 2.13886C15.9762 1.56374 18.7189 0.628454 19.0902 0.628454C19.2355 0.628454 19.2162 0.558437 19.0004 0.305497C18.8488 0.12787 18.6681 -0.0093221 18.5988 0.000495799C18.5294 0.0104429 18.0047 0.0641833 17.433 0.120119ZM18.5946 17.2352C20.4288 17.7612 21.6984 19.2919 22.0445 21.3946C22.5922 24.7221 19.7608 27.9102 16.8493 27.2444C14.0184 26.597 12.4246 23.2786 13.4816 20.2323C14.0636 18.5549 15.9082 17.107 17.539 17.0476C17.7351 17.0405 18.2101 17.1248 18.5946 17.2352ZM35.4961 17.5413C36.5293 18.074 37.2171 18.8235 37.7383 19.9852C38.1535 20.9103 38.1761 21.0258 38.1718 22.1953C38.166 23.7451 37.8812 24.6137 37.0504 25.6149C36.3438 26.4664 35.6736 26.9156 34.699 27.1906C31.7357 28.0267 28.7589 24.8292 29.3074 21.3991C29.5527 19.8658 30.3212 18.5907 31.4486 17.8468C32.802 16.9539 34.1577 16.8515 35.4961 17.5413Z" fill="#C2C2C2"/>
</svg>
